<svg width="24" height="24" viewBox="0 0 24 24" fill="currentColor" xmlns="http://www.w3.org/2000/svg">
<path fill-rule="evenodd" clip-rule="evenodd" d="M1.25 5C1.25 2.92893 2.92893 1.25 5 1.25H7.57143C9.6425 1.25 11.3214 2.92893 11.3214 5V7.57143C11.3214 9.6425 9.6425 11.3214 7.57143 11.3214H5C2.92893 11.3214 1.25 9.6425 1.25 7.57143V5ZM5 2.75C3.75736 2.75 2.75 3.75736 2.75 5V7.57143C2.75 8.81407 3.75736 9.82143 5 9.82143H7.57143C8.81407 9.82143 9.82143 8.81407 9.82143 7.57143V5C9.82143 3.75736 8.81407 2.75 7.57143 2.75H5Z"/>
<path fill-rule="evenodd" clip-rule="evenodd" d="M12.6785 5C12.6785 2.92893 14.3574 1.25 16.4285 1.25H18.9999C21.071 1.25 22.7499 2.92893 22.7499 5V7.57143C22.7499 9.6425 21.071 11.3214 18.9999 11.3214H16.4285C14.3574 11.3214 12.6785 9.6425 12.6785 7.57143V5ZM16.4285 2.75C15.1858 2.75 14.1785 3.75736 14.1785 5V7.57143C14.1785 8.81407 15.1858 9.82143 16.4285 9.82143H18.9999C20.2425 9.82143 21.2499 8.81407 21.2499 7.57143V5C21.2499 3.75736 20.2425 2.75 18.9999 2.75H16.4285Z"/>
<path fill-rule="evenodd" clip-rule="evenodd" d="M12.6785 16.4285C12.6785 14.3574 14.3574 12.6785 16.4285 12.6785H18.9999C21.071 12.6785 22.7499 14.3574 22.7499 16.4285V18.9999C22.7499 21.071 21.071 22.7499 18.9999 22.7499H16.4285C14.3574 22.7499 12.6785 21.071 12.6785 18.9999V16.4285ZM16.4285 14.1785C15.1858 14.1785 14.1785 15.1858 14.1785 16.4285V18.9999C14.1785 20.2425 15.1858 21.2499 16.4285 21.2499H18.9999C20.2425 21.2499 21.2499 20.2425 21.2499 18.9999V16.4285C21.2499 15.1858 20.2425 14.1785 18.9999 14.1785H16.4285Z"/>
<path fill-rule="evenodd" clip-rule="evenodd" d="M1.25 16.4285C1.25 14.3574 2.92893 12.6785 5 12.6785H7.57143C9.6425 12.6785 11.3214 14.3574 11.3214 16.4285V18.9999C11.3214 21.071 9.6425 22.7499 7.57143 22.7499H5C2.92893 22.7499 1.25 21.071 1.25 18.9999V16.4285ZM5 14.1785C3.75736 14.1785 2.75 15.1858 2.75 16.4285V18.9999C2.75 20.2425 3.75736 21.2499 5 21.2499H7.57143C8.81407 21.2499 9.82143 20.2425 9.82143 18.9999V16.4285C9.82143 15.1858 8.81407 14.1785 7.57143 14.1785H5Z"/>
</svg>
